<?xml version="1.0" standalone="no"?><!DOCTYPE svg PUBLIC "-//W3C//DTD SVG 1.1//EN" "http://www.w3.org/Graphics/SVG/1.1/DTD/svg11.dtd"><svg t="1637913323257" class="icon" viewBox="0 0 1024 1024" version="1.1" xmlns="http://www.w3.org/2000/svg" p-id="40278" xmlns:xlink="http://www.w3.org/1999/xlink" width="200" height="200"><defs><style type="text/css"></style></defs><path d="M748.5952 509.4912l69.0688-69.0688c64.256-64.3072 64.256-168.8576 0-233.1648-64.256-64.256-168.8576-64.256-233.1648 0l-69.0688 69.0688-69.0176-69.0176c-64.256-64.256-168.8576-64.256-233.1648 0-31.1296 31.1296-48.2816 72.5504-48.2816 116.5824s17.152 85.4528 48.2816 116.5824l69.0176 69.0176L213.248 578.56c-31.1296 31.1296-48.2816 72.5504-48.2816 116.5824s17.152 85.4528 48.2816 116.5824c31.1296 31.1296 72.5504 48.2816 116.5824 48.2816s85.4528-17.152 116.5824-48.2816l69.0176-69.0688 69.0688 69.0688c31.1296 31.1296 72.5504 48.2816 116.5824 48.2816s85.4528-17.152 116.5824-48.2816c64.256-64.256 64.256-168.8576 0-233.1648l-69.0688-69.0688z" fill="#F37F7E" p-id="40279"></path><path d="M777.9328 344.6784h-97.6384V247.04c0-90.88-73.9328-164.864-164.864-164.864s-164.864 73.9328-164.864 164.864v97.6384H252.928c-90.88 0-164.864 73.9328-164.864 164.864s73.9328 164.864 164.864 164.864h97.6384v97.6384c0 90.88 73.9328 164.864 164.864 164.864s164.864-73.9328 164.864-164.864v-97.6384h97.6384c90.88 0 164.864-73.9328 164.864-164.864s-73.984-164.864-164.864-164.864z" fill="#F5564D" p-id="40280"></path><path d="M515.4304 656.9984c-81.3056 0-147.5072-66.1504-147.5072-147.5072S434.0736 361.984 515.4304 361.984c81.3056 0 147.456 66.1504 147.456 147.5072s-66.1504 147.5072-147.456 147.5072z m0-223.2832c-41.7792 0-75.8272 33.9968-75.8272 75.8272 0 41.7792 33.9968 75.8272 75.8272 75.8272 41.7792 0 75.776-33.9968 75.776-75.8272 0-41.8304-33.9968-75.8272-75.776-75.8272z" fill="#FFFFFF" p-id="40281"></path></svg>